<!-- Icons made by https://www.flaticon.com/authors/darius-dan from https://www.flaticon.com/ -->
<svg height="414pt" viewBox="-19 0 414 414.45632" width="414pt" xmlns="http://www.w3.org/2000/svg"><path d="m238.183594 407.628906h-86.679688c-49.613281 0-89.835937-40.21875-89.835937-89.835937v-127.964844h266.351562v127.964844c0 49.617187-40.222656 89.835937-89.835937 89.835937zm0 0" fill="#0e65e5"/><path d="m238.183594 414.457031h-86.675782c-53.300781 0-96.667968-43.363281-96.667968-96.664062v-127.964844c0-3.769531 3.054687-6.828125 6.828125-6.828125h266.351562c3.773438 0 6.828125 3.058594 6.828125 6.828125v127.964844c0 53.300781-43.367187 96.664062-96.664062 96.664062zm-169.6875-217.804687v121.140625c0 45.773437 37.238281 83.011719 83.011718 83.011719h86.675782c45.769531 0 83.011718-37.238282 83.011718-83.011719v-121.140625zm0 0" fill="#0e65e5"/><path d="m238.183594 387.148438h-86.679688c-49.613281 0-89.835937-40.21875-89.835937-89.835938v-127.964844h266.351562v127.964844c0 49.617188-40.222656 89.835938-89.835937 89.835938zm0 0" fill="#288eea"/><path d="m238.183594 393.976562h-86.675782c-53.300781 0-96.667968-43.363281-96.667968-96.664062v-127.964844c0-3.769531 3.054687-6.824218 6.828125-6.824218h266.351562c3.773438 0 6.828125 3.054687 6.828125 6.824218v127.964844c0 53.300781-43.367187 96.664062-96.664062 96.664062zm-169.6875-217.804687v121.140625c0 45.773438 37.238281 83.011719 83.011718 83.011719h86.675782c45.769531 0 83.011718-37.238281 83.011718-83.011719v-121.140625zm0 0" fill="#0e65e5"/><path d="m265.710938 318.882812h-141.074219c-23.039063 0-41.71875-18.675781-41.71875-41.71875v-122.121093h224.511719v122.121093c0 23.042969-18.679688 41.71875-41.71875 41.71875zm0 0" fill="#d7e9ff"/><path d="m265.707031 325.710938h-141.070312c-26.769531 0-48.539063-21.777344-48.539063-48.542969v-122.125c0-3.769531 3.050782-6.828125 6.824219-6.828125h224.507813c3.773437 0 6.824218 3.058594 6.824218 6.828125v122.125c0 26.765625-21.78125 48.542969-48.546875 48.542969zm-175.960937-163.839844v115.296875c0 19.238281 15.65625 34.886719 34.886718 34.886719h141.074219c19.238281 0 34.894531-15.648438 34.894531-34.886719v-115.296875zm0 0" fill="#0e65e5"/><path d="m339.15625 271.097656h-11.136719v-81.921875h11.136719c8.871094 0 16.058594 7.191407 16.058594 16.058594v49.804687c0 8.867188-7.191406 16.058594-16.058594 16.058594zm0 0" fill="#d7e9ff"/><path d="m339.15625 277.921875h-11.132812c-3.773438 0-6.828126-3.054687-6.828126-6.824219v-81.921875c0-3.769531 3.054688-6.824219 6.828126-6.824219h11.132812c12.621094 0 22.886719 10.265626 22.886719 22.882813v49.800781c0 12.621094-10.269531 22.886719-22.886719 22.886719zm-4.308594-13.652344h4.304688c5.09375 0 9.234375-4.144531 9.234375-9.234375v-49.800781c0-5.085937-4.140625-9.230469-9.234375-9.230469h-4.304688zm0 0" fill="#0e65e5"/><path d="m328.019531 167.910156c-96.503906 50.546875-185.289062 50.546875-266.351562 0v-60.652344h266.351562zm0 0" fill="#94c1ff"/><path d="m189.046875 212.53125c-45.710937 0-89.480469-12.941406-130.992187-38.828125-2-1.246094-3.214844-3.4375-3.214844-5.792969v-60.652344c0-3.773437 3.054687-6.828124 6.828125-6.828124h266.351562c3.773438 0 6.828125 3.054687 6.828125 6.828124v60.652344c0 2.539063-1.40625 4.871094-3.660156 6.046875-49.09375 25.714844-96.585938 38.574219-142.140625 38.574219zm-120.550781-48.441406c76.632812 46.34375 161.59375 46.230468 252.699218-.332032v-49.675781h-252.699218zm259.523437 3.820312h.066407zm0 0" fill="#0e65e5"/><path d="m61.667969 271.097656h-11.25c-8.867188 0-16.054688-7.191406-16.054688-16.058594v-49.804687c0-8.871094 7.1875-16.058594 16.054688-16.058594h11.25zm0 0" fill="#d7e9ff"/><path d="m61.667969 277.921875h-11.246094c-12.621094 0-22.886719-10.265625-22.886719-22.886719v-49.800781c0-12.617187 10.265625-22.882813 22.886719-22.882813h11.246094c3.773437 0 6.828125 3.054688 6.828125 6.824219v81.921875c0 3.769532-3.054688 6.824219-6.828125 6.824219zm-11.246094-81.917969c-5.09375 0-9.234375 4.144532-9.234375 9.230469v49.800781c0 5.089844 4.140625 9.234375 9.234375 9.234375h4.417969v-68.265625zm0 0" fill="#0e65e5"/><path d="m165.121094 11.679688c-26.457032 11.796874-74.09375 28.542968-133.25 29.71875-13.804688.277343-24.816406 11.648437-24.816406 25.453124 0 6.035157 2.117187 11.878907 6.03125 16.46875 16.359374 19.183594 63.519531 69.636719 110.683593 74.355469h128.386719c47.160156-4.714843 94.320312-55.171875 110.679688-74.355469 3.914062-4.589843 6.03125-10.433593 6.03125-16.46875 0-13.804687-11.011719-25.175781-24.816407-25.453124-59.15625-1.175782-106.789062-17.921876-133.25-29.71875-14.542969-6.484376-31.136719-6.484376-45.679687 0zm0 0" fill="#fff"/><path d="m187.960938 164.5h-64.191407c-49.789062-4.945312-97.601562-55.320312-115.875-76.75-4.9375-5.785156-7.667969-13.210938-7.667969-20.894531 0-17.457031 14.132813-31.933594 31.507813-32.28125 56.472656-1.121094 102.195313-16.460938 130.605469-29.128907 16.28125-7.261718 34.960937-7.261718 51.242187 0 28.410157 12.671876 74.132813 28.007813 130.605469 29.128907 17.375.347656 31.507812 14.824219 31.507812 32.28125 0 7.6875-2.726562 15.109375-7.667968 20.898437-18.273438 21.425782-66.085938 71.800782-115.191406 76.714844zm-20.058594-146.589844c-29.558594 13.1875-77.140625 29.148438-135.902344 30.316406-9.992188.199219-18.117188 8.554688-18.117188 18.628907 0 4.441406 1.558594 8.710937 4.398438 12.03125 13.425781 15.746093 60.753906 67.453125 106.167969 71.996093l127.707031-.035156c44.730469-4.507812 92.058594-56.214844 105.484375-71.957031 2.839844-3.320313 4.402344-7.59375 4.402344-12.035156 0-10.074219-8.128907-18.429688-18.121094-18.628907-58.761719-1.167968-106.339844-17.128906-135.898437-30.316406-12.753907-5.683594-27.382813-5.675781-40.121094 0zm0 0" fill="#0e65e5"/><path d="m246.320312 234.53125c-3.773437 0-6.824218-3.058594-6.824218-6.828125v-23.34375c0-3.769531 3.050781-6.824219 6.824218-6.824219 3.773438 0 6.828126 3.054688 6.828126 6.824219v23.34375c0 3.769531-3.054688 6.828125-6.828126 6.828125zm0 0" fill="#0e65e5"/><path d="m150.746094 234.53125c-3.773438 0-6.824219-3.058594-6.824219-6.828125v-23.34375c0-3.769531 3.050781-6.824219 6.824219-6.824219 3.773437 0 6.828125 3.054688 6.828125 6.824219v23.34375c0 3.769531-3.054688 6.828125-6.828125 6.828125zm0 0" fill="#0e65e5"/><path d="m209.550781 281.015625h-31.222656c-7.226563 0-14.335937 2.964844-18.792969 8.65625-10.242187 13.085937-31.582031 13.085937-31.582031 13.085937v10.871094c41.902344 27.179688 65.84375 0 65.84375 0s23.945313 27.179688 65.847656 0v-10.871094s-21.582031 0-31.757812-13.3125c-4.28125-5.601562-11.289063-8.429687-18.335938-8.429687zm0 0" fill="#94c1ff"/><g fill="#0e65e5"><path d="m224.183594 332.464844c-14.28125 0-24.660156-5.679688-30.390625-9.886719-10.097657 7.417969-34.660157 19.417969-69.550781-3.222656-1.941407-1.253907-3.113282-3.414063-3.113282-5.726563v-10.867187c0-3.773438 3.054688-6.828125 6.828125-6.828125.164063 0 18.175781-.214844 26.199219-10.46875 5.527344-7.0625 14.566406-11.273438 24.171875-11.273438h31.222656c9.558594 0 18.4375 4.152344 23.757813 11.113282 7.960937 10.414062 26.167968 10.628906 26.351562 10.628906 3.753906.023437 6.808594 3.070312 6.808594 6.828125v10.871093c0 2.3125-1.175781 4.46875-3.113281 5.726563-15.109375 9.796875-28.28125 13.105469-39.171875 13.105469zm-30.390625-25.660156c1.960937 0 3.828125.839843 5.121093 2.3125.78125.851562 19.714844 21.003906 53.902344.71875v-.800782c-8.28125-1.144531-22.109375-4.652344-30.355468-15.441406-2.753907-3.601562-7.578126-5.75-12.910157-5.75h-31.222656c-5.445313 0-10.460937 2.253906-13.417969 6.03125-8.261718 10.566406-21.921875 14.027344-30.125 15.160156v.796875c34.550782 20.507813 53.691406-.492187 53.890625-.714843 1.292969-1.472657 3.160157-2.3125 5.117188-2.3125zm0 0"/><path d="m191.375 127.734375c-3.773438 0-6.828125-3.054687-6.828125-6.824219v-81.921875c0-3.769531 3.054687-6.824219 6.828125-6.824219s6.828125 3.054688 6.828125 6.824219v81.921875c0 3.769532-3.054687 6.824219-6.828125 6.824219zm0 0"/><path d="m218.679688 66.296875h-54.613282c-3.773437 0-6.824218-3.058594-6.824218-6.828125s3.050781-6.824219 6.824218-6.824219h54.613282c3.773437 0 6.828124 3.054688 6.828124 6.824219s-3.054687 6.828125-6.828124 6.828125zm0 0"/><path d="m191.375 127.734375c-22.585938 0-40.960938-18.371094-40.960938-40.957031 0-3.769532 3.054688-6.828125 6.828126-6.828125 3.773437 0 6.824218 3.058593 6.824218 6.828125 0 15.054687 12.25 27.304687 27.308594 27.304687s27.304688-12.25 27.304688-27.304687c0-3.769532 3.054687-6.828125 6.828124-6.828125 3.773438 0 6.828126 3.058593 6.828126 6.828125 0 22.585937-18.375 40.957031-40.960938 40.957031zm0 0"/></g><path d="m245.988281 393.976562c-3.773437 0-6.828125-3.058593-6.828125-6.828124v-27.304688c0-3.769531 3.054688-6.828125 6.828125-6.828125 3.773438 0 6.828125 3.058594 6.828125 6.828125v27.304688c0 3.769531-3.054687 6.828124-6.828125 6.828124zm0 0" fill="#fff"/><path d="m259.640625 380.324219h-27.304687c-3.773438 0-6.828126-3.058594-6.828126-6.828125 0-3.769532 3.054688-6.828125 6.828126-6.828125h27.304687c3.773437 0 6.828125 3.058593 6.828125 6.828125 0 3.769531-3.054688 6.828125-6.828125 6.828125zm0 0" fill="#fff"/><path d="m225.507812 189.175781c-3.773437 0-6.828124-3.054687-6.828124-6.824219 0-3.773437 3.054687-6.828124 6.828124-6.828124 38.445313 0 77.742188-25.902344 78.132813-26.160157 3.148437-2.101562 7.375-1.246093 9.46875 1.894531 2.09375 3.136719 1.246094 7.375-1.894531 9.464844-1.742188 1.164063-43.167969 28.453125-85.707032 28.453125zm0 0" fill="#fff"/></svg>
