<svg xmlns="http://www.w3.org/2000/svg" width="65px" height="65px" viewBox="4 10 490 520"><path id="Selection #1" fill="#f3f3f3" stroke="#f3f3f3" stroke-width="1" d="M 299.00,65.99 C 299.00,65.99 344.00,91.72 344.00,91.72 344.00,91.72 408.00,128.58 408.00,128.58 414.45,132.32 433.38,142.98 437.96,147.18 448.38,156.74 452.98,170.15 453.00,184.00 453.00,184.00 453.00,359.00 453.00,359.00 452.98,373.83 447.44,387.33 435.91,396.98 430.87,401.21 415.53,409.64 409.00,413.42 409.00,413.42 333.00,457.15 333.00,457.15 333.00,457.15 294.00,479.42 294.00,479.42 275.78,490.00 269.05,496.26 247.00,496.00 233.76,495.84 223.09,488.78 212.00,482.42 212.00,482.42 167.00,456.72 167.00,456.72 167.00,456.72 91.00,413.00 91.00,413.00 84.58,409.31 72.26,402.84 67.00,398.62 54.31,388.45 48.03,375.13 48.00,359.00 48.00,359.00 48.00,184.00 48.00,184.00 48.03,166.97 54.62,152.23 69.00,142.52 69.00,142.52 85.00,133.15 85.00,133.15 85.00,133.15 111.00,118.15 111.00,118.15 111.00,118.15 179.00,79.15 179.00,79.15 194.63,70.23 223.94,51.04 240.00,47.46 264.96,44.01 278.55,53.98 299.00,65.99 Z M 302.77,203.00 C 302.91,200.75 304.25,194.51 302.77,192.73 301.86,191.20 298.75,190.77 297.00,190.40 297.00,190.40 281.00,187.43 281.00,187.43 269.34,185.74 260.67,185.72 249.00,186.83 233.71,188.29 220.64,189.34 208.01,199.52 194.51,210.40 189.20,236.33 189.00,253.00 189.00,253.00 188.00,275.00 188.00,275.00 188.00,275.00 188.96,286.00 188.96,286.00 189.82,305.76 191.32,329.67 207.00,343.83 224.39,359.52 250.28,357.10 272.00,357.00 279.84,356.96 287.38,355.27 295.00,353.58 297.29,353.07 302.58,352.12 304.05,350.28 305.73,348.04 304.28,342.75 304.05,340.00 304.05,340.00 302.00,311.00 302.00,311.00 291.22,314.12 266.70,319.04 256.00,317.58 250.79,316.86 242.05,316.56 239.74,310.95 238.87,308.83 239.00,305.31 239.00,303.00 239.00,303.00 239.00,247.00 239.00,247.00 239.01,243.04 238.97,238.69 240.65,235.00 243.50,228.75 249.75,226.74 256.00,225.62 268.91,223.29 285.84,228.25 299.00,230.00 299.00,230.00 302.77,203.00 302.77,203.00 Z M 717.91,332.70 C 698.62,350.51 663.62,351.46 642.00,337.45 623.39,325.40 614.26,303.62 614.00,282.00 613.72,257.61 618.73,233.07 640.00,218.04 670.64,196.40 723.47,205.41 733.00,246.00 733.00,246.00 707.00,253.00 707.00,253.00 698.16,227.74 670.89,223.25 654.09,239.18 645.19,247.62 642.14,261.10 642.00,273.00 641.86,285.70 642.86,301.81 651.33,312.00 662.69,325.67 683.65,328.43 696.91,315.82 702.99,310.02 705.42,302.71 708.00,295.00 708.00,295.00 734.00,303.00 734.00,303.00 731.82,312.56 725.12,326.05 717.91,332.70 Z M 962.00,209.00 C 962.00,209.00 962.00,345.00 962.00,345.00 962.00,345.00 938.00,345.00 938.00,345.00 938.00,345.00 937.00,331.00 937.00,331.00 933.35,337.78 927.22,342.15 920.00,344.64 903.08,350.48 885.47,344.85 875.22,330.00 862.93,312.18 862.81,279.09 874.55,261.00 884.35,245.89 905.47,239.78 922.00,246.88 927.68,249.32 931.59,252.80 936.00,257.00 936.00,257.00 936.00,209.00 936.00,209.00 936.00,209.00 962.00,209.00 962.00,209.00 Z M 820.00,247.09 C 849.16,257.55 860.46,294.45 846.10,321.00 837.80,336.34 824.84,344.15 808.00,346.57 790.20,349.13 770.61,342.38 759.53,328.00 744.37,308.33 747.52,272.85 766.01,256.18 774.00,248.98 782.70,246.34 793.00,244.44 801.85,243.30 811.57,244.06 820.00,247.09 Z M 1056.00,339.21 C 1039.72,350.87 1011.21,349.48 996.17,336.33 985.98,327.43 981.16,312.23 981.00,299.00 980.82,283.54 983.40,268.89 994.30,257.09 1010.60,239.43 1044.41,239.79 1060.82,257.09 1072.26,269.15 1074.00,287.21 1074.00,303.00 1074.00,303.00 1007.00,303.00 1007.00,303.00 1007.38,307.47 1008.27,312.06 1010.53,316.00 1015.47,324.59 1026.68,329.54 1036.00,325.08 1043.90,321.30 1043.52,315.07 1047.27,313.81 1048.84,313.11 1052.22,313.76 1054.00,313.81 1054.00,313.81 1072.00,316.00 1072.00,316.00 1068.66,325.56 1064.45,333.16 1056.00,339.21 Z M 1131.00,247.32 C 1144.99,240.83 1166.29,243.43 1173.00,259.00 1183.81,251.27 1187.85,244.36 1203.00,244.01 1216.56,243.70 1229.28,249.33 1233.90,263.00 1236.57,270.92 1236.00,284.43 1236.00,293.00 1236.00,293.00 1236.00,345.00 1236.00,345.00 1236.00,345.00 1210.00,345.00 1210.00,345.00 1210.00,345.00 1210.00,285.00 1210.00,285.00 1209.92,278.27 1209.25,270.11 1202.96,266.23 1192.86,260.00 1181.69,269.15 1178.93,279.00 1176.46,287.78 1177.00,296.98 1177.00,306.00 1177.00,306.00 1177.00,345.00 1177.00,345.00 1177.00,345.00 1151.00,345.00 1151.00,345.00 1151.00,345.00 1151.00,285.00 1151.00,285.00 1150.91,277.88 1150.07,269.10 1142.98,265.45 1132.98,260.30 1122.37,269.57 1119.76,279.00 1117.42,287.43 1118.00,296.34 1118.00,305.00 1118.00,305.00 1118.00,345.00 1118.00,345.00 1118.00,345.00 1092.00,345.00 1092.00,345.00 1092.00,345.00 1092.00,246.00 1092.00,246.00 1092.00,246.00 1116.00,246.00 1116.00,246.00 1116.00,246.00 1116.00,259.00 1116.00,259.00 1121.10,253.92 1124.32,250.42 1131.00,247.32 Z M 1304.00,244.00 C 1315.53,244.02 1330.84,246.45 1337.52,257.04 1342.91,265.57 1342.00,280.11 1342.00,290.00 1342.00,301.35 1341.17,320.61 1343.51,331.00 1344.62,335.92 1347.02,340.40 1349.00,345.00 1349.00,345.00 1330.00,345.00 1330.00,345.00 1330.00,345.00 1323.51,343.98 1323.51,343.98 1323.51,343.98 1320.00,335.00 1320.00,335.00 1312.33,339.84 1310.39,342.62 1301.00,345.25 1281.84,350.63 1256.98,343.24 1256.04,320.00 1255.88,316.01 1256.29,312.83 1257.44,309.00 1262.75,291.25 1282.55,289.08 1298.00,285.79 1301.22,285.10 1311.50,282.93 1313.69,281.15 1316.28,279.03 1315.94,275.89 1315.01,273.00 1312.93,266.55 1307.28,264.48 1301.00,264.09 1295.78,263.77 1290.14,265.23 1286.53,269.21 1283.97,272.03 1283.32,275.35 1280.73,276.31 1278.35,277.19 1262.60,274.48 1259.00,274.00 1264.74,248.84 1280.90,243.96 1304.00,244.00 Z M 1377.00,314.79 C 1378.70,314.77 1382.13,314.10 1383.61,314.79 1386.30,315.68 1386.83,319.36 1390.21,322.81 1394.30,327.00 1400.28,328.73 1406.00,328.96 1411.42,329.18 1418.67,328.27 1422.89,324.61 1425.78,322.10 1427.78,318.70 1425.39,315.10 1421.81,309.75 1410.98,308.53 1405.00,307.12 1385.98,302.60 1361.04,297.77 1362.04,273.00 1362.87,252.41 1383.14,244.21 1401.00,244.00 1423.62,243.74 1443.20,246.81 1450.00,272.00 1450.00,272.00 1433.00,274.19 1433.00,274.19 1431.22,274.24 1427.84,274.89 1426.27,274.19 1423.31,273.22 1423.20,269.37 1417.98,265.65 1411.54,261.06 1391.22,259.84 1387.23,268.19 1383.39,276.22 1401.19,279.42 1406.00,280.63 1425.60,285.53 1454.02,288.71 1452.96,315.00 1452.07,337.00 1430.37,346.77 1411.00,347.00 1388.06,347.26 1365.83,342.27 1359.00,317.00 1359.00,317.00 1377.00,314.79 1377.00,314.79 Z M 1539.00,247.09 C 1568.16,257.55 1579.46,294.45 1565.10,321.00 1556.80,336.34 1543.84,344.15 1527.00,346.57 1509.20,349.13 1489.61,342.38 1478.53,328.00 1463.37,308.33 1466.52,272.85 1485.01,256.18 1493.00,248.98 1501.70,246.34 1512.00,244.44 1520.85,243.30 1530.57,244.06 1539.00,247.09 Z M 1631.00,247.35 C 1646.96,240.25 1671.58,243.87 1678.29,262.00 1681.86,271.64 1681.00,283.78 1681.00,294.00 1681.00,294.00 1681.00,345.00 1681.00,345.00 1681.00,345.00 1655.00,345.00 1655.00,345.00 1655.00,345.00 1655.00,290.00 1655.00,290.00 1654.98,278.44 1652.45,262.67 1637.00,264.20 1625.83,265.30 1619.49,273.50 1618.00,284.00 1616.05,297.77 1617.00,329.43 1617.00,345.00 1617.00,345.00 1591.00,345.00 1591.00,345.00 1591.00,345.00 1591.00,246.00 1591.00,246.00 1591.00,246.00 1615.00,246.00 1615.00,246.00 1615.00,246.00 1615.00,260.00 1615.00,260.00 1619.89,254.82 1624.36,250.30 1631.00,247.35 Z M 777.77,309.00 C 781.39,320.73 791.36,328.89 804.00,326.67 815.34,324.69 821.10,315.54 823.19,305.00 827.02,285.73 819.95,261.69 796.00,264.33 776.74,268.96 772.66,292.42 777.77,309.00 Z M 892.75,305.00 C 894.69,316.82 899.74,326.09 913.00,326.91 925.12,327.65 932.19,318.93 934.76,308.00 939.15,289.35 935.02,261.56 910.00,264.33 891.90,268.78 890.24,289.61 892.75,305.00 Z M 1044.30,273.00 C 1037.78,263.22 1024.20,260.86 1015.04,268.39 1008.19,274.03 1008.86,279.43 1007.00,287.00 1007.00,287.00 1048.00,287.00 1048.00,287.00 1047.78,282.26 1046.99,277.03 1044.30,273.00 Z M 1496.77,309.00 C 1500.39,320.73 1510.36,328.89 1523.00,326.67 1534.34,324.69 1540.10,315.54 1542.19,305.00 1546.02,285.73 1538.95,261.69 1515.00,264.33 1495.74,268.96 1491.66,292.42 1496.77,309.00 Z M 1287.04,306.65 C 1277.99,313.32 1282.62,324.91 1291.00,328.11 1299.70,331.43 1311.23,325.38 1314.44,317.00 1316.55,311.47 1316.00,303.95 1316.00,298.00 1310.35,299.28 1290.84,303.85 1287.04,306.65 Z"></path></svg>